<svg width="20" height="18" viewBox="0 0 20 18" fill="none" xmlns="http://www.w3.org/2000/svg">
<path d="M8.76511 0.481315C9.08457 -0.160438 10.0076 -0.160439 10.3271 0.481314L12.588 5.02333C12.7149 5.27817 12.9601 5.4548 13.2438 5.49567L18.2995 6.22401C19.0138 6.32692 19.299 7.19725 18.7821 7.69679L15.1238 11.2323C14.9185 11.4306 14.8249 11.7164 14.8733 11.9965L15.7369 16.9887C15.859 17.694 15.1122 18.2319 14.4733 17.8989L9.95135 15.5419C9.69763 15.4097 9.39453 15.4097 9.14081 15.5419L4.61886 17.8989C3.97994 18.2319 3.2332 17.694 3.35522 16.9887L4.21884 11.9965C4.2673 11.7164 4.17363 11.4306 3.96837 11.2323L0.310036 7.69679C-0.20686 7.19726 0.078369 6.32692 0.792702 6.22401L5.8484 5.49567C6.13206 5.4548 6.37728 5.27817 6.50413 5.02333L8.76511 0.481315Z" fill="#FBBF24"/>
</svg>
